# xmcd
#
# Track frame offsets:
#	150
#	26185
#	62185
#	78903
#	104966
#	114754
#	142105
#	156853
#	181493
#	201679
#	208083
#	220620
#	226453
#
# Disc length: 3598 seconds
#
# Revision: 1
# Processed by: cddbd v1.5.2PL0 Copyright (c) Steve Scherf et al.
# Submitted via: audiograbber 1.83.01
#
DISCID=c80e0c0d
DTITLE=Atlantic Drone - Atlantic Drone
DYEAR=2006
DGENRE=Psychedelic
TTITLE0=Little Miss Expanding Universe
TTITLE1=Moth Activity
TTITLE2=Moo-Bah-Cluck
TTITLE3=For Arizona
TTITLE4=The Nothing Bad Ever Happens Dub
TTITLE5=Oomba-June-Judy-July
TTITLE6=Fake Lashes on a Flapper
TTITLE7=Mary Pickford Waking Up in a Burning Barn
TTITLE8=Minty Pony Gallops Away
TTITLE9=Acre Foot X Acre Inch
TTITLE10=Oh... Pie
TTITLE11=Bee-Keeping
TTITLE12=Sunshine on Softserve
EXTD=
EXTT0=
EXTT1=
EXTT2=
EXTT3=
EXTT4=
EXTT5=
EXTT6=
EXTT7=
EXTT8=
EXTT9=
EXTT10=
EXTT11=
EXTT12=
PLAYORDER=
